<svg id="Layer_3" enable-background="new 0 0 64 64" height="512" viewBox="0 0 64 64" width="512" xmlns="http://www.w3.org/2000/svg"><g><g><path d="m46 31h14v10h-14z" fill="#59ac98"/></g><g><path d="m4 31h14v10h-14z" fill="#59ac98"/></g><g><path d="m26 36v-11h-11c-1.105 0-2-.895-2-2 0-1.105.895-2 2-2h14 6 9v-8c0-1.105.895-2 2-2 1.105 0 2 .895 2 2v10c0 1.105-.895 2-2 2h-8v11" fill="#e47c6e"/></g><g><circle cx="32" cy="47" fill="#4d5d7a" r="15"/></g><g><circle cx="32" cy="47" fill="#8892a0" r="11"/></g><g><path d="m46 11c-1.105 0-2 .895-2 2v2h4v-2c0-1.105-.895-2-2-2z" fill="#efbe9a"/></g><g><path d="m17 25h-2c-1.105 0-2-.895-2-2 0-1.105.895-2 2-2h2z" fill="#efbe9a"/></g><g><path d="m37 8v8c0 2.761-2.239 5-5 5-2.761 0-5-2.239-5-5v-8" fill="#efbe9a"/></g><g><path d="m33 9c0 2.209-1.791 4-4 4h-2v-5c0-1.105.895-2 2-2h6c1.105 0 2 .895 2 2v5c-2.209 0-4-1.791-4-4z" fill="#976947"/></g><g><path d="m29 20v2c0 1.657 1.343 3 3 3 1.657 0 3-1.343 3-3v-2" fill="#efbe9a"/></g><g><path d="m27 11h-3c-.552 0-1 .448-1 1v4c0 .552.448 1 1 1h3" fill="#4d5d7a"/></g><g><path d="m37 11h3c.552 0 1 .448 1 1v4c0 .552-.448 1-1 1h-3" fill="#4d5d7a"/></g><g><path d="m32 63c-8.822 0-16-7.178-16-16s7.178-16 16-16 16 7.178 16 16-7.178 16-16 16zm0-30c-7.72 0-14 6.28-14 14s6.28 14 14 14 14-6.28 14-14-6.28-14-14-14z"/></g><g><path d="m32 59c-6.617 0-12-5.383-12-12s5.383-12 12-12 12 5.383 12 12-5.383 12-12 12zm0-22c-5.514 0-10 4.486-10 10s4.486 10 10 10 10-4.486 10-10-4.486-10-10-10z"/></g><g><path d="m43 30h20v2h-20z"/></g><g><path d="m59 31h2v10h-2z"/></g><g><path d="m63 42h-17c-.552 0-1-.447-1-1v-10h2v9h16z"/></g><g><path d="m50 31h2v3h-2z"/></g><g><path d="m54 31h2v3h-2z"/></g><g><path d="m50 38h2v3h-2z"/></g><g><path d="m54 38h2v3h-2z"/></g><g><path d="m1 30h20v2h-20z"/></g><g><path d="m3 31h2v10h-2z"/></g><g><path d="m18 42h-17v-2h16v-9h2v10c0 .553-.448 1-1 1z"/></g><g><path d="m12 31h2v3h-2z"/></g><g><path d="m8 31h2v3h-2z"/></g><g><path d="m12 38h2v3h-2z"/></g><g><path d="m8 38h2v3h-2z"/></g><g><path d="m52 41h2v19h-2z"/></g><g><path d="m60 63h-2v-2h-10v2h-2v-3c0-.553.448-1 1-1h12c.552 0 1 .447 1 1z"/></g><g><path d="m10 41h2v19h-2z"/></g><g><path d="m18 63h-2v-2h-10v2h-2v-3c0-.553.448-1 1-1h12c.552 0 1 .447 1 1z"/></g><g><path d="m7 8.929h2.001v14.142h-2.001z" transform="matrix(.141 -.99 .99 .141 -8.971 21.657)"/></g><g><path d="m7 4.929h2.001v14.142h-2.001z" transform="matrix(.141 -.99 .99 .141 -5.011 18.223)"/></g><g><path d="m52 13h2v18h-2z"/></g><g><path d="m45.929 20h14.142v2.001h-14.142z" transform="matrix(.99 -.142 .142 .99 -2.439 7.714)"/></g><g><path d="m45.929 16h14.142v2.001h-14.142z" transform="matrix(.99 -.142 .142 .99 -1.873 7.674)"/></g><g><path d="m37 14c-1.634 0-3.087-.788-4-2.003-.913 1.215-2.366 2.003-4 2.003h-2c-.552 0-1-.447-1-1v-5c0-1.654 1.346-3 3-3h6c1.654 0 3 1.346 3 3v5c0 .553-.448 1-1 1zm-9-2h1c1.654 0 3-1.346 3-3 0-.553.448-1 1-1s1 .447 1 1c0 1.304.836 2.416 2 2.829v-3.829c0-.552-.449-1-1-1h-6c-.551 0-1 .448-1 1z"/></g><g><path d="m32 22c-3.309 0-6-2.691-6-6v-3h2v3c0 2.206 1.794 4 4 4s4-1.794 4-4v-4h2v4c0 3.309-2.691 6-6 6z"/></g><g><path d="m27 18h-3c-1.103 0-2-.897-2-2v-4c0-1.103.897-2 2-2h3v2h-3v4h3z"/></g><g><path d="m40 18h-3v-2h3v-4h-3v-2h3c1.103 0 2 .897 2 2v4c0 1.103-.897 2-2 2z"/></g><g><path d="m32 26c-2.206 0-4-1.794-4-4v-2h2v2c0 1.103.897 2 2 2s2-.897 2-2v-2h2v2c0 2.206-1.794 4-4 4z"/></g><g><path d="m41 11h-2v-3c0-2.757-2.243-5-5-5h-4c-2.757 0-5 2.243-5 5v3h-2v-3c0-3.859 3.14-7 7-7h4c3.86 0 7 3.141 7 7z"/></g><g><path d="m41.5 58.379h2v4.243h-2z" transform="matrix(.707 -.707 .707 .707 -30.332 47.772)"/></g><g><path d="m19.379 59.5h4.243v2h-4.243z" transform="matrix(.707 -.707 .707 .707 -36.483 32.923)"/></g><g><path d="m39 33h-2v-8c0-.553.448-1 1-1h8c.551 0 1-.448 1-1v-10c0-.552-.449-1-1-1s-1 .448-1 1v8c0 .553-.448 1-1 1h-9v-2h8v-7c0-1.654 1.346-3 3-3s3 1.346 3 3v10c0 1.654-1.346 3-3 3h-7z"/></g><g><path d="m44 14h4v2h-4z"/></g><g><path d="m45 1h2v10h-2z"/></g><g><path d="m7 8h2v23h-2z"/></g><g><path d="m27 33h-2v-7h-10c-1.654 0-3-1.346-3-3s1.346-3 3-3h14v2h-14c-.551 0-1 .448-1 1s.449 1 1 1h11c.552 0 1 .447 1 1z"/></g><g><path d="m16 21h2v4h-2z"/></g><g><path d="m4 22h9v2h-9z"/></g></g></svg>